# xmcd
#
# Track frame offsets:
#	150
#	16356
#	35093
#	57371
#	74633
#	92140
#	111218
#	128588
#	145258
#	158715
#	172761
#	192189
#	207362
#	229947
#	246959
#	264395
#	297001
#
# Disc length: 3975 seconds
#
# Revision: 1
# Processed by: cddbd v1.5.1PL0 Copyright (c) Steve Scherf et al.
# Submitted via: audiograbber 1.83.01
#
DISCID=f50f8511
DTITLE=Various Artist - CBESP5042-03
DYEAR=2004
DGENRE=Karaoke
TTITLE0=Gretchen Wilson - Here For The Party
TTITLE1=Terri Clark - I Think The World Needs A Drink
TTITLE2=Chely Wright - The Bumper Of My SUV
TTITLE3=Katrina Elam - No End In Sight
TTITLE4=Rachel Proctor - Where I Belong
TTITLE5=SheDaisy - Come Home Soon
TTITLE6=Roxie Dean - A Soldier's Wife
TTITLE7=Jamie O Neal - Trying To Find Atlantis
TTITLE8=Shelly Fiarchild - You Don't Lie Here Anymore
TTITLE9=Amy Dalley - Living Together
TTITLE10=Getchen Wilson - When I Think About Cheatin
TTITLE11=Kerry Harvick - Cowgirls
TTITLE12=Julie Roberts - The Chance
TTITLE13=Lee Ann Womack - I May Hate Myself In The Morning
TTITLE14=Miranda Lampert - Me and Charlie Talking
TTITLE15=Sara Evans - Tonight
TTITLE16=Data - DAta
EXTD=
EXTT0=
EXTT1=
EXTT2=
EXTT3=
EXTT4=
EXTT5=
EXTT6=
EXTT7=
EXTT8=
EXTT9=
EXTT10=
EXTT11=
EXTT12=
EXTT13=
EXTT14=
EXTT15=
EXTT16=
PLAYORDER=
